PathFileType	4	(X/Y/Z)	Patient4_TMGait_0pt6_01_right_46.trc.trc
DataRate	CameraRate	NumFrames	NumMarkers	Units	OrigDataRate	OrigDataStartFrame	OrigNumFrames
80.000000000000	80.000000000000	6	33	mm	80.000000000000	71	       141
Frame#	Time	Sacral			L.Shoulder			Chest			R.Shoulder			Neck			R.ASIS			L.ASIS			R.Thigh.Superior			R.Thigh.Lateral			R.Thigh.Inferior			R.Patella			L.Thigh.Superior			L.Thigh.Lateral			L.Thigh.Inferior			L.Patella			L.Shank.Superior			L.Shank.Lateral			L.Shank.Inferior			R.Shank.Superior			R.Shank.Lateral			R.Shank.Inferior			R.Heel			R.Midfoot.Superior			R.Midfoot.Lateral			R.Toe			L.Heel			L.Midfoot.Lateral			L.Midfoot.Superior			L.Toe			L.Elbow			L.Wrist			R.Elbow			R.Wrist			
		X1	Y1	Z1	X2	Y2	Z2	X3	Y3	Z3	X4	Y4	Z4	X5	Y5	Z5	X6	Y6	Z6	X7	Y7	Z7	X8	Y8	Z8	X9	Y9	Z9	X10	Y10	Z10	X11	Y11	Z11	X12	Y12	Z12	X13	Y13	Z13	X14	Y14	Z14	X15	Y15	Z15	X16	Y16	Z16	X17	Y17	Z17	X18	Y18	Z18	X19	Y19	Z19	X20	Y20	Z20	X21	Y21	Z21	X22	Y22	Z22	X23	Y23	Z23	X24	Y24	Z24	X25	Y25	Z25	X26	Y26	Z26	X27	Y27	Z27	X28	Y28	Z28	X29	Y29	Z29	X30	Y30	Z30	X31	Y31	Z31	X32	Y32	Z32	X33	Y33	Z33	

71	56.225000000000	807.238935155840	1006.654493838309	479.046853256292	958.263496354667	1440.069489402268	305.135382752631	1078.744687860196	1365.819181463620	450.744090054889	1012.752868688402	1431.589312854583	633.505224917633	951.694940738642	1491.546595833701	462.112829534651	1035.714659055006	935.429942307155	580.575295780287	1009.220417319547	961.482696455173	307.517994653134	1032.239283592043	723.087684655458	550.616116553092	927.023136102070	629.392349233991	609.517682195930	987.994217710077	565.591242004217	529.072831737259	968.471406573864	481.395900021024	532.566457230432	1084.300867991422	778.568380514020	329.888751321316	1034.394860396248	647.353372866026	255.856640505296	1142.111489622981	591.848807563997	312.502124707152	1170.047825566243	527.150554852818	309.759499306547	1155.064737961598	453.824100179123	302.792733090341	1089.392246510373	321.792842539587	257.778619623997	1180.444306615925	225.774143655758	311.243103795499	930.400649347387	396.431009004868	536.444493637740	843.629577141812	300.960471380784	592.501821230130	876.520490469611	203.240513651181	528.543150993779	727.253986633646	44.738080238496	488.620514819566	899.379377606353	96.764091759685	531.058389395360	807.864266278455	37.374130783941	565.588853419575	1016.388367480704	39.075228058977	562.856702273477	1102.436605417724	44.489797106203	354.623766273543	1175.136608044380	49.758047368685	273.573635053642	1244.042236010283	129.415457119478	292.028105614631	1378.657326837172	101.065691118625	266.198514248233	844.935824197086	1106.106489203939	193.637826169751	820.088534103973	848.300243067021	191.397720079019	1150.792503830884	1118.142268042957	738.944032222021	1361.194574257493	1228.959516618626	667.473360397455	
72	56.237500000000	807.586889878538	1004.903219531764	477.296917559160	957.742980863285	1438.037652625899	302.914907010286	1078.413499658925	1364.303652647428	448.573677314668	1012.392478019516	1430.341538577575	631.303764126653	951.290051043196	1489.883309867839	459.701898685823	1036.123294589818	933.613125950320	578.929927778068	1009.615535689256	959.768145297559	305.832626521405	1031.576121321989	721.039399922670	548.614386633023	925.896246108782	627.944391632480	608.021107519622	985.968471862630	563.656801077932	527.286370042009	965.654116784984	479.489342053350	530.586581589217	1085.477571229943	777.010810070963	328.791252561452	1034.655654537824	645.288026681558	256.298870047307	1142.374267047753	590.026187567730	312.741958634260	1169.126596585403	524.425050837273	310.957046346953	1153.301462803296	450.399959065045	304.188677785419	1085.597533804859	319.481779756538	259.363167364736	1174.446264414108	222.198559014979	313.737723768067	926.719598214017	394.738451371404	534.921424486902	839.361628972988	300.252539050308	591.738819000074	870.427247801326	202.175793265843	527.598353615315	719.648458820423	44.428516573230	488.601568032016	891.674481901367	96.602054841606	530.830207852003	800.232671628485	37.263458426951	565.595443678800	1008.791243863466	39.023703931651	562.893530982133	1092.675861369142	43.577186462069	357.207471747289	1165.665918991661	47.144857488962	276.349032638085	1236.450907949066	124.620661253503	295.347901004670	1370.282372563733	92.888313536997	269.833334583466	845.813414789044	1103.731161461956	190.738992753104	821.902168773044	845.907813213366	187.431165906213	1149.260036516526	1116.546309748595	738.079432382361	1357.858045261593	1229.419798762160	665.220070073176	
73	56.250000000000	808.100707324137	1003.033786557552	475.338080348183	957.157029401484	1435.946456952403	300.569538971432	1078.032981266638	1362.851872529486	446.306852722995	1011.864918737184	1428.994615600173	629.064823026470	950.858720946996	1488.196472621039	457.218313628414	1036.758874845687	931.783060012807	577.174693877115	1010.288618336622	958.017094875773	304.058610467695	1031.209237018943	718.991528258558	546.652290437240	924.975538999261	626.507369736503	606.456483619283	984.231547576141	561.690450865925	525.536715988919	963.065336158671	477.514838796594	528.590771973884	1086.963490298032	775.178817116090	327.788710090844	1035.122415209657	643.167589895718	256.744890604085	1142.673888584437	587.918310631600	313.225662473890	1168.024532504774	521.236760261516	312.383519876745	1151.189165847740	446.589172456173	305.687267963739	1081.143357472150	317.022582893874	260.780721786684	1167.301971506415	218.182216790896	316.265556075113	923.201709846628	393.042918334893	533.403569693650	835.200708480115	299.622254605353	590.974472191557	864.396440620448	201.165806217619	526.704687810153	712.050352682392	44.256959393833	488.648659660865	884.012612288214	96.458068578647	530.617784139952	792.630275923915	37.182341705243	565.616292711816	1001.224199220209	38.944923220377	562.928396418725	1081.034515082074	42.519330602829	359.393169707423	1154.466868747030	44.415825854052	278.837727926357	1227.297575556223	119.401035333420	298.787481351070	1360.327213161345	83.977573839081	273.696893299151	847.231530071949	1101.076451698301	187.648760461628	825.043881963275	843.152997210215	183.269898391543	1147.010103374234	1114.447784852184	737.260882868048	1354.496070746841	1228.350766626345	663.074512649986	
74	56.262500000000	808.755052420675	1001.174713745781	473.188750692189	956.567191021548	1433.909560624378	298.111061818411	1077.648512574202	1361.543948546467	443.960565732953	1011.218059220431	1427.637860865824	626.796644334642	950.450701846057	1486.589296666390	454.679783152641	1037.590359543971	930.023638836235	575.291679235699	1011.188273970405	956.334993615841	302.192147347267	1031.099050547686	717.028102182966	544.723790841314	924.227075927435	625.164617963282	604.808675428321	982.772569504467	559.775351915604	523.816864165052	960.720228021129	475.527344111031	526.599484449180	1088.589450938565	773.122081427895	326.872840631687	1035.638683665898	641.089961011389	257.098154361183	1142.841466639568	585.609511079674	313.887270082256	1166.660768164483	517.785525422528	313.930568845796	1148.769909176806	442.647662628075	307.167638877373	1076.334104421448	314.529149064037	261.940075148118	1159.541542235020	214.030602960623	318.687828343568	919.842979170117	391.420318263580	531.901864145875	831.127938535436	299.158714026164	590.210409333432	858.443010083446	200.291435092426	525.887193467431	704.468868092108	44.316951252171	488.777332923111	876.430784096470	96.353043413158	530.442865083973	785.070442889217	37.172171226941	565.658394887126	993.696827488936	38.838424725300	562.961467472585	1068.447533049925	41.407745964507	361.130215174403	1142.419085238074	41.802714099371	280.947295303325	1217.279891784719	114.183141646110	302.167121148402	1349.545089836078	75.079611320970	277.548168508954	849.220515615795	1098.270869999436	184.424316157198	829.463647698478	840.174190810883	178.972803518396	1144.011653156763	1111.908348412422	736.441356044540	1351.151502592129	1225.719247703336	661.032586171711	
75	56.275000000000	809.514160256361	999.473829565014	470.877127546669	956.040153144479	1432.056856203148	295.557661423709	1077.310150563134	1360.464668715656	441.554605972305	1010.518618599522	1426.384665437518	624.503299738209	950.115372383747	1485.176301433591	452.102999420685	1038.567911087995	928.432532855415	573.263389492771	1012.242810586684	954.843321722767	300.223979245030	1031.198014468919	715.248658108483	542.804143728533	923.635908045637	624.002030958617	603.063472616864	981.604216442778	558.005066376075	522.114069928760	958.672036582959	473.581406359450	524.643465709446	1090.182770010231	770.952043289853	326.012095201021	1036.072525018346	639.180651825513	257.253840583500	1142.738144738211	583.241828534319	314.625934473487	1164.992200727683	514.319770698126	315.454180656233	1146.106511008338	438.846106421291	308.497839179970	1071.453012159007	312.146623384827	262.756482963390	1151.648066141042	210.052262140244	320.864748508050	916.670716243517	389.947054811933	530.432645864599	827.147147745376	298.956519550077	589.449878580825	852.600931311355	199.637328328749	525.170646941741	696.919217189168	44.718653412601	488.999377854922	868.975046312355	96.309699563630	530.331201130732	777.568408887585	37.285117487572	565.729332129246	986.217057428062	38.705628615869	562.991511890655	1055.761359267339	40.347874905754	362.414342111540	1130.301071462382	39.507080997902	282.621666251684	1207.023289763196	109.361455514922	305.295090131191	1338.603611136605	66.868508866166	281.122992419197	851.799157130269	1095.465984105113	181.128240295167	835.105069887404	837.140567222665	174.596189230481	1140.232238673960	1109.025654379468	735.564293383573	1347.849528693700	1221.483578346420	659.090863207887	
76	56.287500000000	810.336017166643	998.080439693522	468.435723606386	955.640023821250	1430.521821997796	292.934385348784	1077.066071749387	1359.693420507006	439.110532611280	1009.844802182814	1425.358393479052	622.185864064200	949.895108805979	1484.069800591156	449.504429980447	1039.626483065770	927.113176928756	571.075229284963	1013.370025121108	953.664090755437	298.138220711824	1031.459154692337	713.759554506768	540.860053932619	923.212149027773	623.098188935160	601.213943974960	980.769890929527	556.473617678274	520.418593978781	957.016012265944	471.725002101260	522.770050872491	1091.587067337547	768.827182249247	325.152832722500	1036.328319166880	637.573104038873	257.114201191073	1142.265929153694	580.985542783217	315.316445812344	1163.002422451024	511.090995676405	316.800307119352	1143.260046087800	435.426943115303	309.558423711254	1066.718083313326	310.022227773594	263.160352999603	1143.991455598867	206.510756762860	322.676055980972	913.748803130684	388.691850097916	529.021841992563	823.290602553860	299.107612499962	588.700227840661	846.925283309934	199.284932805971	524.579869286934	689.424955255877	45.584761404957	489.321025746328	861.699042917021	96.350309026220	530.310370905807	770.141023300973	37.582953504420	565.836304656682	978.789794463690	38.549015823845	563.015995161034	1043.632220412994	39.431577359740	363.276950592170	1118.705040530345	37.665065960357	283.844579481695	1197.010337620392	105.239619367517	307.999233203484	1328.013024804631	59.856448863176	284.189467357653	854.967310078250	1092.824316975371	177.821006787722	841.910310551721	834.239026528086	170.192828363949	1135.643944706152	1105.927711911113	734.566833827099	1344.593049315444	1215.599125983991	657.247094480318	
